<svg xmlns="http://www.w3.org/2000/svg" xmlns:xlink="http://www.w3.org/1999/xlink" width="2000" zoomAndPan="magnify" viewBox="0 0 1500 1499.999933" height="2000" preserveAspectRatio="xMidYMid meet" version="1.0"><defs><g/><clipPath id="c7daa6bc94"><rect x="0" width="927" y="0" height="1290"/></clipPath><clipPath id="b6d7301562"><rect x="0" width="792" y="0" height="1299"/></clipPath><clipPath id="c16b4ba33a"><rect x="0" width="1023" y="0" height="106"/></clipPath></defs><g transform="matrix(1, 0, 0, 1, 514, 0.000000000000112861)"><g clip-path="url(#c7daa6bc94)"><g fill="#ffffff" fill-opacity="1"><g transform="translate(10.245138, 930.698418)"><g><path d="M 114.375 -705.421875 C 156.019531 -722.722656 196.066406 -731.375 234.515625 -731.375 C 266.546875 -731.375 299.539062 -719.519531 333.5 -695.8125 C 352.082031 -683 372.910156 -658.007812 395.984375 -620.84375 C 411.359375 -595.21875 430.898438 -548.773438 454.609375 -481.515625 L 571.84375 -148.96875 C 598.75 -74.644531 626.140625 -15.539062 654.015625 28.34375 C 681.890625 72.238281 707.359375 105.238281 730.421875 127.34375 C 753.484375 149.445312 777.507812 164.984375 802.5 173.953125 C 827.488281 182.921875 848.148438 187.40625 864.484375 187.40625 C 880.828125 187.40625 895.40625 186.125 908.21875 183.5625 L 909.1875 193.1875 C 878.425781 203.4375 848.3125 208.5625 818.84375 208.5625 C 789.375 208.5625 759.898438 201.03125 730.421875 185.96875 C 700.953125 170.914062 673.398438 149.929688 647.765625 123.015625 C 592.660156 67.273438 545.894531 -17.617188 507.46875 -131.671875 L 469.984375 -241.234375 L 206.640625 -241.234375 L 140.328125 -70.15625 C 137.117188 -62.46875 135.515625 -54.78125 135.515625 -47.09375 C 135.515625 -39.40625 138.878906 -31.234375 145.609375 -22.578125 C 152.335938 -13.929688 162.75 -9.609375 176.84375 -9.609375 L 184.53125 -9.609375 L 184.53125 0 L -8.640625 0 L -8.640625 -9.609375 L 0 -9.609375 C 15.382812 -9.609375 30.441406 -14.253906 45.171875 -23.546875 C 59.910156 -32.835938 72.085938 -46.773438 81.703125 -65.359375 L 320.046875 -636.234375 C 285.453125 -685.566406 242.523438 -710.234375 191.265625 -710.234375 C 168.203125 -710.234375 143.535156 -705.425781 117.265625 -695.8125 Z M 217.21875 -270.0625 L 460.375 -270.0625 L 384.4375 -494 C 369.707031 -536.914062 356.253906 -570.550781 344.078125 -594.90625 Z M 217.21875 -270.0625 "/></g></g></g></g></g><g transform="matrix(1, 0, 0, 1, 150, 125)"><g clip-path="url(#b6d7301562)"><g fill="#ffffff" fill-opacity="1"><g transform="translate(0.979972, 939.797937)"><g><path d="M 765.96875 -337.34375 C 765.96875 -227.132812 736.332031 -141.113281 677.0625 -79.28125 C 617.800781 -17.457031 534.035156 13.453125 425.765625 13.453125 C 352.722656 13.453125 286.882812 -1.921875 228.25 -32.671875 C 169.625 -63.429688 124.132812 -105.398438 91.78125 -158.578125 C 59.425781 -211.753906 43.25 -271.179688 43.25 -336.859375 C 43.25 -402.535156 59.265625 -461.960938 91.296875 -515.140625 C 123.335938 -568.316406 167.550781 -610.117188 223.9375 -640.546875 C 280.320312 -670.984375 343.113281 -686.203125 412.3125 -686.203125 C 455.875 -686.203125 500.238281 -680.273438 545.40625 -668.421875 C 590.570312 -656.566406 628.210938 -640.707031 658.328125 -620.84375 L 677.5625 -485.359375 L 668.90625 -485.359375 C 655.445312 -539.160156 624.375 -581.28125 575.6875 -611.71875 C 527 -642.15625 472.859375 -657.375 413.265625 -657.375 C 328.046875 -657.375 257.082031 -627.097656 200.375 -566.546875 C 143.675781 -506.003906 115.328125 -429.921875 115.328125 -338.296875 C 115.328125 -246.679688 144.640625 -169.957031 203.265625 -108.125 C 261.898438 -46.289062 338.625 -15.375 433.4375 -15.375 C 528.257812 -15.375 605.625 -46.128906 665.53125 -107.640625 C 725.445312 -169.148438 755.40625 -253.40625 755.40625 -360.40625 L 765.015625 -360.40625 C 765.648438 -352.71875 765.96875 -345.03125 765.96875 -337.34375 Z M 765.96875 -337.34375 "/></g></g></g></g></g><g transform="matrix(1, 0, 0, 1, 176, 718)"><g clip-path="url(#c16b4ba33a)"><path fill="#000000" d="M 28 5.511719 L 996.242188 5.511719 C 1002.667969 5.511719 1008.828125 8.0625 1013.371094 12.605469 C 1017.910156 17.148438 1020.464844 23.308594 1020.464844 29.730469 L 1020.464844 78.171875 C 1020.464844 84.597656 1017.910156 90.757812 1013.371094 95.296875 C 1008.828125 99.839844 1002.667969 102.394531 996.242188 102.394531 L 28 102.394531 C 21.574219 102.394531 15.414062 99.839844 10.871094 95.296875 C 6.332031 90.757812 3.777344 84.597656 3.777344 78.171875 L 3.777344 29.730469 C 3.777344 23.308594 6.332031 17.148438 10.871094 12.605469 C 15.414062 8.0625 21.574219 5.511719 28 5.511719 Z M 28 5.511719 " fill-opacity="1" fill-rule="nonzero"/><g fill="#ffffff" fill-opacity="1"><g transform="translate(51.097165, 72.109533)"><g><path d="M 39.15625 -8.25 C 37.582031 -5.414062 35.410156 -3.25 32.640625 -1.75 C 29.867188 -0.257812 26.707031 0.484375 23.15625 0.484375 C 19.070312 0.484375 15.566406 -0.363281 12.640625 -2.0625 C 9.710938 -3.757812 7.457031 -6.191406 5.875 -9.359375 C 4.300781 -12.535156 3.515625 -16.328125 3.515625 -20.734375 C 3.515625 -25.253906 4.382812 -29.226562 6.125 -32.65625 C 7.863281 -36.09375 10.285156 -38.78125 13.390625 -40.71875 C 16.503906 -42.664062 20.101562 -43.640625 24.1875 -43.640625 C 27.539062 -43.640625 30.5 -42.953125 33.0625 -41.578125 C 35.625 -40.203125 37.675781 -38.179688 39.21875 -35.515625 L 35.578125 -32.796875 C 33.148438 -37.148438 29.3125 -39.328125 24.0625 -39.328125 C 20.945312 -39.328125 18.207031 -38.539062 15.84375 -36.96875 C 13.476562 -35.394531 11.628906 -33.210938 10.296875 -30.421875 C 8.960938 -27.640625 8.296875 -24.410156 8.296875 -20.734375 C 8.296875 -15.398438 9.597656 -11.242188 12.203125 -8.265625 C 14.816406 -5.296875 18.46875 -3.8125 23.15625 -3.8125 C 28.894531 -3.8125 33.035156 -6.195312 35.578125 -10.96875 Z M 39.15625 -8.25 "/></g></g></g><g fill="#ffffff" fill-opacity="1"><g transform="translate(136.485376, 72.109533)"><g><path d="M 36 -4.671875 L 37.03125 -1.03125 C 35.78125 -0.101562 34.125 0.359375 32.0625 0.359375 C 30.320312 0.359375 28.742188 -0.0390625 27.328125 -0.84375 C 25.921875 -1.65625 24.550781 -3.03125 23.21875 -4.96875 L 15.15625 -16.84375 C 14.625 -17.613281 13.992188 -18.25 13.265625 -18.75 C 12.546875 -19.257812 11.800781 -19.515625 11.03125 -19.515625 L 9.578125 -19.515625 L 9.578125 0 L 4.96875 0 L 4.96875 -43.03125 L 17.09375 -43.03125 C 21.894531 -43.03125 25.578125 -41.988281 28.140625 -39.90625 C 30.710938 -37.832031 32 -34.992188 32 -31.390625 C 32 -28.804688 31.363281 -26.644531 30.09375 -24.90625 C 28.820312 -23.164062 27.113281 -21.851562 24.96875 -20.96875 C 22.832031 -20.082031 20.46875 -19.640625 17.875 -19.640625 L 17.515625 -19.640625 C 18.648438 -19.066406 19.800781 -17.914062 20.96875 -16.1875 L 26.609375 -7.9375 C 27.378906 -6.769531 28.054688 -5.878906 28.640625 -5.265625 C 29.222656 -4.660156 29.828125 -4.25 30.453125 -4.03125 C 31.078125 -3.8125 31.859375 -3.703125 32.796875 -3.703125 C 33.398438 -3.703125 33.960938 -3.789062 34.484375 -3.96875 C 35.015625 -4.15625 35.519531 -4.390625 36 -4.671875 Z M 16.734375 -39.15625 L 9.578125 -39.15625 L 9.578125 -23.28125 L 16.1875 -23.28125 C 19.738281 -23.28125 22.484375 -23.914062 24.421875 -25.1875 C 26.359375 -26.457031 27.328125 -28.488281 27.328125 -31.28125 C 27.328125 -33.738281 26.476562 -35.664062 24.78125 -37.0625 C 23.09375 -38.457031 20.410156 -39.15625 16.734375 -39.15625 Z M 16.734375 -39.15625 "/></g></g></g><g fill="#ffffff" fill-opacity="1"><g transform="translate(217.875716, 72.109533)"><g><path d="M 0.734375 0 L 18.609375 -43.03125 L 22.671875 -43.03125 L 39.828125 0 L 35.09375 0 L 30.609375 -11.515625 L 10.1875 -11.515625 L 5.515625 0 Z M 11.765625 -15.453125 L 29.09375 -15.453125 L 20.609375 -37.28125 Z M 11.765625 -15.453125 "/></g></g></g><g fill="#ffffff" fill-opacity="1"><g transform="translate(304.778309, 72.109533)"><g><path d="M 28.671875 -39.03125 L 9.578125 -39.03125 L 9.578125 -23.21875 L 28.125 -23.21875 L 28.125 -19.21875 L 9.578125 -19.21875 L 9.578125 0 L 4.96875 0 L 4.96875 -43.03125 L 28.671875 -43.03125 Z M 28.671875 -39.03125 "/></g></g></g><g fill="#ffffff" fill-opacity="1"><g transform="translate(380.23241, 72.109533)"><g><path d="M 33.09375 -43.03125 L 32.671875 -38.96875 L 18.90625 -38.96875 L 18.90625 0 L 14.1875 0 L 14.1875 -38.96875 L 0.125 -38.96875 L 0.125 -43.03125 Z M 33.09375 -43.03125 "/></g></g></g><g fill="#ffffff" fill-opacity="1"><g transform="translate(459.442092, 72.109533)"><g><path d="M 4.96875 0 L 4.96875 -43.03125 L 9.640625 -43.03125 L 9.640625 -4.0625 L 29.765625 -4.0625 L 29.328125 0 Z M 4.96875 0 "/></g></g></g><g fill="#ffffff" fill-opacity="1"><g transform="translate(534.896194, 72.109533)"><g><path d="M 34.484375 -43.03125 L 18.96875 -19.453125 L 18.96875 0 L 14.296875 0 L 14.296875 -19.390625 L -1.390625 -43.03125 L 3.875 -43.03125 L 16.84375 -23.515625 L 29.578125 -43.03125 Z M 34.484375 -43.03125 "/></g></g></g><g fill="#ffffff" fill-opacity="1"><g transform="translate(614.22702, 72.109533)"><g/></g></g><g fill="#ffffff" fill-opacity="1"><g transform="translate(674.174216, 72.109533)"><g><path d="M 0.734375 0 L 18.609375 -43.03125 L 22.671875 -43.03125 L 39.828125 0 L 35.09375 0 L 30.609375 -11.515625 L 10.1875 -11.515625 L 5.515625 0 Z M 11.765625 -15.453125 L 29.09375 -15.453125 L 20.609375 -37.28125 Z M 11.765625 -15.453125 "/></g></g></g><g fill="#ffffff" fill-opacity="1"><g transform="translate(761.076809, 72.109533)"><g><path d="M 34.25 -43.03125 L 38.90625 -43.03125 L 38.96875 -20.671875 C 38.96875 -13.796875 37.519531 -8.550781 34.625 -4.9375 C 31.738281 -1.320312 27.390625 0.484375 21.578125 0.484375 C 15.921875 0.484375 11.707031 -1.03125 8.9375 -4.0625 C 6.164062 -7.09375 4.78125 -11.859375 4.78125 -18.359375 L 4.78125 -43.03125 L 9.578125 -43.03125 L 9.578125 -18.609375 C 9.578125 -13.429688 10.523438 -9.671875 12.421875 -7.328125 C 14.328125 -4.984375 17.378906 -3.8125 21.578125 -3.8125 C 26.054688 -3.8125 29.304688 -5.195312 31.328125 -7.96875 C 33.347656 -10.738281 34.34375 -14.992188 34.3125 -20.734375 Z M 34.25 -43.03125 "/></g></g></g><g fill="#ffffff" fill-opacity="1"><g transform="translate(850.947485, 72.109533)"><g><path d="M 36 -4.671875 L 37.03125 -1.03125 C 35.78125 -0.101562 34.125 0.359375 32.0625 0.359375 C 30.320312 0.359375 28.742188 -0.0390625 27.328125 -0.84375 C 25.921875 -1.65625 24.550781 -3.03125 23.21875 -4.96875 L 15.15625 -16.84375 C 14.625 -17.613281 13.992188 -18.25 13.265625 -18.75 C 12.546875 -19.257812 11.800781 -19.515625 11.03125 -19.515625 L 9.578125 -19.515625 L 9.578125 0 L 4.96875 0 L 4.96875 -43.03125 L 17.09375 -43.03125 C 21.894531 -43.03125 25.578125 -41.988281 28.140625 -39.90625 C 30.710938 -37.832031 32 -34.992188 32 -31.390625 C 32 -28.804688 31.363281 -26.644531 30.09375 -24.90625 C 28.820312 -23.164062 27.113281 -21.851562 24.96875 -20.96875 C 22.832031 -20.082031 20.46875 -19.640625 17.875 -19.640625 L 17.515625 -19.640625 C 18.648438 -19.066406 19.800781 -17.914062 20.96875 -16.1875 L 26.609375 -7.9375 C 27.378906 -6.769531 28.054688 -5.878906 28.640625 -5.265625 C 29.222656 -4.660156 29.828125 -4.25 30.453125 -4.03125 C 31.078125 -3.8125 31.859375 -3.703125 32.796875 -3.703125 C 33.398438 -3.703125 33.960938 -3.789062 34.484375 -3.96875 C 35.015625 -4.15625 35.519531 -4.390625 36 -4.671875 Z M 16.734375 -39.15625 L 9.578125 -39.15625 L 9.578125 -23.28125 L 16.1875 -23.28125 C 19.738281 -23.28125 22.484375 -23.914062 24.421875 -25.1875 C 26.359375 -26.457031 27.328125 -28.488281 27.328125 -31.28125 C 27.328125 -33.738281 26.476562 -35.664062 24.78125 -37.0625 C 23.09375 -38.457031 20.410156 -39.15625 16.734375 -39.15625 Z M 16.734375 -39.15625 "/></g></g></g><g fill="#ffffff" fill-opacity="1"><g transform="translate(932.337825, 72.109533)"><g><path d="M 0.734375 0 L 18.609375 -43.03125 L 22.671875 -43.03125 L 39.828125 0 L 35.09375 0 L 30.609375 -11.515625 L 10.1875 -11.515625 L 5.515625 0 Z M 11.765625 -15.453125 L 29.09375 -15.453125 L 20.609375 -37.28125 Z M 11.765625 -15.453125 "/></g></g></g></g></g></svg>