<svg xmlns="http://www.w3.org/2000/svg" xmlns:xlink="http://www.w3.org/1999/xlink" width="2000" zoomAndPan="magnify" viewBox="0 0 1500 1499.999933" height="2000" preserveAspectRatio="xMidYMid meet" version="1.0"><defs><g/><clipPath id="5958d8d477"><rect x="0" width="891" y="0" height="1224"/></clipPath><clipPath id="a97fb01420"><rect x="0" width="760" y="0" height="1249"/></clipPath><clipPath id="54a3fd6fcc"><rect x="0" width="1000" y="0" height="101"/></clipPath></defs><g transform="matrix(1, 0, 0, 1, 579, 0.000000000000112861)"><g clip-path="url(#5958d8d477)"><g fill="#000000" fill-opacity="1"><g transform="translate(9.84211, 879.199344)"><g><path d="M 109.875 -677.75 C 149.894531 -694.375 188.375 -702.6875 225.3125 -702.6875 C 256.082031 -702.6875 287.785156 -691.296875 320.421875 -668.515625 C 338.265625 -656.203125 358.269531 -632.195312 380.4375 -596.5 C 395.207031 -571.875 413.984375 -527.25 436.765625 -462.625 L 549.40625 -143.125 C 575.257812 -71.71875 601.570312 -14.929688 628.34375 27.234375 C 655.125 69.410156 679.59375 101.113281 701.75 122.34375 C 723.914062 143.582031 747.003906 158.507812 771.015625 167.125 C 795.023438 175.75 814.878906 180.0625 830.578125 180.0625 C 846.273438 180.0625 860.28125 178.832031 872.59375 176.375 L 873.515625 185.59375 C 843.960938 195.445312 815.023438 200.375 786.703125 200.375 C 758.390625 200.375 730.070312 193.140625 701.75 178.671875 C 673.4375 164.203125 646.96875 144.039062 622.34375 118.1875 C 569.40625 64.632812 524.472656 -16.925781 487.546875 -126.5 L 451.53125 -231.765625 L 198.53125 -231.765625 L 134.8125 -67.40625 C 131.738281 -60.019531 130.203125 -52.632812 130.203125 -45.25 C 130.203125 -37.863281 133.429688 -30.015625 139.890625 -21.703125 C 146.359375 -13.390625 156.363281 -9.234375 169.90625 -9.234375 L 177.296875 -9.234375 L 177.296875 0 L -8.3125 0 L -8.3125 -9.234375 L 0 -9.234375 C 14.769531 -9.234375 29.234375 -13.695312 43.390625 -22.625 C 57.554688 -31.550781 69.253906 -44.941406 78.484375 -62.796875 L 307.484375 -611.265625 C 274.242188 -658.671875 233 -682.375 183.75 -682.375 C 161.59375 -682.375 137.894531 -677.753906 112.65625 -668.515625 Z M 208.6875 -259.46875 L 442.296875 -259.46875 L 369.359375 -474.625 C 355.191406 -515.851562 342.265625 -548.164062 330.578125 -571.5625 Z M 208.6875 -259.46875 "/></g></g></g></g></g><g transform="matrix(1, 0, 0, 1, 215, 155)"><g clip-path="url(#a97fb01420)"><g fill="#000000" fill-opacity="1"><g transform="translate(0.573775, 903.673385)"><g><path d="M 735.921875 -324.109375 C 735.921875 -218.222656 707.445312 -135.578125 650.5 -76.171875 C 593.5625 -16.773438 513.082031 12.921875 409.0625 12.921875 C 338.882812 12.921875 275.628906 -1.847656 219.296875 -31.390625 C 162.972656 -60.941406 119.265625 -101.265625 88.171875 -152.359375 C 57.085938 -203.453125 41.546875 -260.546875 41.546875 -323.640625 C 41.546875 -386.742188 56.9375 -443.835938 87.71875 -494.921875 C 118.5 -546.015625 160.972656 -586.179688 215.140625 -615.421875 C 269.316406 -644.660156 329.648438 -659.28125 396.140625 -659.28125 C 437.992188 -659.28125 480.617188 -653.585938 524.015625 -642.203125 C 567.410156 -630.816406 603.570312 -615.582031 632.5 -596.5 L 650.96875 -466.3125 L 642.671875 -466.3125 C 629.734375 -518.007812 599.875 -558.476562 553.09375 -587.71875 C 506.320312 -616.957031 454.3125 -631.578125 397.0625 -631.578125 C 315.1875 -631.578125 247.007812 -602.492188 192.53125 -544.328125 C 138.050781 -486.160156 110.8125 -413.0625 110.8125 -325.03125 C 110.8125 -237 138.972656 -163.28125 195.296875 -103.875 C 251.617188 -44.476562 325.332031 -14.78125 416.4375 -14.78125 C 507.539062 -14.78125 581.867188 -44.328125 639.421875 -103.421875 C 696.984375 -162.515625 725.765625 -243.460938 725.765625 -346.265625 L 735 -346.265625 C 735.613281 -338.878906 735.921875 -331.492188 735.921875 -324.109375 Z M 735.921875 -324.109375 "/></g></g></g></g></g><g transform="matrix(1, 0, 0, 1, 220, 726)"><g clip-path="url(#54a3fd6fcc)"><path fill="#e1e1e1" d="M 26.164062 4.773438 L 975.027344 4.773438 C 981.199219 4.773438 987.117188 7.226562 991.484375 11.589844 C 995.847656 15.953125 998.296875 21.875 998.296875 28.042969 L 998.296875 74.585938 C 998.296875 80.757812 995.847656 86.675781 991.484375 91.039062 C 987.117188 95.402344 981.199219 97.855469 975.027344 97.855469 L 26.164062 97.855469 C 19.992188 97.855469 14.074219 95.402344 9.707031 91.039062 C 5.34375 86.675781 2.894531 80.757812 2.894531 74.585938 L 2.894531 28.042969 C 2.894531 21.875 5.34375 15.953125 9.707031 11.589844 C 14.074219 7.226562 19.992188 4.773438 26.164062 4.773438 Z M 26.164062 4.773438 " fill-opacity="1" fill-rule="nonzero"/><g fill="#000000" fill-opacity="1"><g transform="translate(48.355247, 68.760772)"><g><path d="M 39.296875 -8.03125 C 37.671875 -5.28125 35.421875 -3.164062 32.546875 -1.6875 C 29.671875 -0.207031 26.445312 0.53125 22.875 0.53125 C 18.644531 0.53125 15.015625 -0.28125 11.984375 -1.90625 C 8.960938 -3.539062 6.644531 -5.878906 5.03125 -8.921875 C 3.425781 -11.972656 2.625 -15.617188 2.625 -19.859375 C 2.625 -24.242188 3.515625 -28.082031 5.296875 -31.375 C 7.078125 -34.675781 9.5625 -37.257812 12.75 -39.125 C 15.9375 -40.988281 19.625 -41.921875 23.8125 -41.921875 C 27.382812 -41.921875 30.441406 -41.238281 32.984375 -39.875 C 35.523438 -38.519531 37.648438 -36.460938 39.359375 -33.703125 L 33.53125 -29.515625 C 32.488281 -31.453125 31.113281 -32.867188 29.40625 -33.765625 C 27.695312 -34.660156 25.8125 -35.109375 23.75 -35.109375 C 21.113281 -35.109375 18.785156 -34.46875 16.765625 -33.1875 C 14.742188 -31.90625 13.160156 -30.128906 12.015625 -27.859375 C 10.878906 -25.585938 10.3125 -22.957031 10.3125 -19.96875 C 10.3125 -15.65625 11.425781 -12.296875 13.65625 -9.890625 C 15.882812 -7.484375 19 -6.28125 23 -6.28125 C 25.207031 -6.28125 27.242188 -6.785156 29.109375 -7.796875 C 30.972656 -8.804688 32.488281 -10.34375 33.65625 -12.40625 Z M 39.296875 -8.03125 "/></g></g></g><g fill="#000000" fill-opacity="1"><g transform="translate(131.557714, 68.760772)"><g><path d="M 36.90625 -7.21875 L 38.65625 -1.34375 C 37.882812 -0.757812 36.929688 -0.300781 35.796875 0.03125 C 34.671875 0.363281 33.488281 0.53125 32.25 0.53125 C 27.90625 0.53125 24.488281 -1.390625 22 -5.234375 L 16.015625 -14.4375 C 15.390625 -15.40625 14.742188 -16.082031 14.078125 -16.46875 C 13.421875 -16.863281 12.707031 -17.0625 11.9375 -17.0625 L 11.640625 -17.0625 L 11.640625 0 L 4.25 0 L 4.25 -41.328125 L 17.109375 -41.328125 C 22.347656 -41.328125 26.316406 -40.238281 29.015625 -38.0625 C 31.710938 -35.894531 33.0625 -32.910156 33.0625 -29.109375 C 33.0625 -26.816406 32.554688 -24.84375 31.546875 -23.1875 C 30.546875 -21.539062 29.171875 -20.234375 27.421875 -19.265625 C 25.671875 -18.296875 23.691406 -17.675781 21.484375 -17.40625 C 22.648438 -16.78125 23.71875 -15.734375 24.6875 -14.265625 L 27.9375 -9.4375 C 28.789062 -8.1875 29.597656 -7.328125 30.359375 -6.859375 C 31.117188 -6.398438 32.082031 -6.171875 33.25 -6.171875 C 34.601562 -6.171875 35.820312 -6.519531 36.90625 -7.21875 Z M 16.59375 -35.171875 L 11.640625 -35.171875 L 11.640625 -23 L 16.25 -23 C 19.425781 -23 21.769531 -23.484375 23.28125 -24.453125 C 24.800781 -25.421875 25.5625 -26.972656 25.5625 -29.109375 C 25.5625 -33.148438 22.570312 -35.171875 16.59375 -35.171875 Z M 16.59375 -35.171875 "/></g></g></g><g fill="#000000" fill-opacity="1"><g transform="translate(212.37411, 68.760772)"><g><path d="M -0.578125 0 L 17.0625 -41.328125 L 23.46875 -41.328125 L 40.40625 0 L 32.71875 0 L 29 -9.4375 L 10.9375 -9.4375 L 7.109375 0 Z M 13.5625 -15.78125 L 26.546875 -15.78125 L 20.140625 -32.015625 Z M 13.5625 -15.78125 "/></g></g></g><g fill="#000000" fill-opacity="1"><g transform="translate(296.740528, 68.760772)"><g><path d="M 29.578125 -34.8125 L 11.640625 -34.8125 L 11.640625 -23.578125 L 28.640625 -23.578125 L 28.640625 -17.0625 L 11.640625 -17.0625 L 11.640625 0 L 4.25 0 L 4.25 -41.328125 L 29.578125 -41.328125 Z M 29.578125 -34.8125 "/></g></g></g><g fill="#000000" fill-opacity="1"><g transform="translate(370.980564, 68.760772)"><g><path d="M 34.234375 -41.328125 L 33.296875 -34.703125 L 20.5 -34.703125 L 20.5 0 L 12.921875 0 L 12.921875 -34.703125 L -0.34375 -34.703125 L -0.34375 -41.328125 Z M 34.234375 -41.328125 "/></g></g></g><g fill="#000000" fill-opacity="1"><g transform="translate(448.712453, 68.760772)"><g><path d="M 4.25 0 L 4.25 -41.328125 L 11.8125 -41.328125 L 11.8125 -6.640625 L 30.21875 -6.640625 L 29.6875 0 Z M 4.25 0 "/></g></g></g><g fill="#000000" fill-opacity="1"><g transform="translate(522.952489, 68.760772)"><g><path d="M 35.390625 -41.328125 L 20.953125 -18.515625 L 20.953125 0 L 13.328125 0 L 13.328125 -18.34375 L -1.515625 -41.328125 L 7.046875 -41.328125 L 17.46875 -25.09375 L 27.484375 -41.328125 Z M 35.390625 -41.328125 "/></g></g></g><g fill="#000000" fill-opacity="1"><g transform="translate(601.440984, 68.760772)"><g/></g></g><g fill="#000000" fill-opacity="1"><g transform="translate(659.909504, 68.760772)"><g><path d="M -0.578125 0 L 17.0625 -41.328125 L 23.46875 -41.328125 L 40.40625 0 L 32.71875 0 L 29 -9.4375 L 10.9375 -9.4375 L 7.109375 0 Z M 13.5625 -15.78125 L 26.546875 -15.78125 L 20.140625 -32.015625 Z M 13.5625 -15.78125 "/></g></g></g><g fill="#000000" fill-opacity="1"><g transform="translate(744.275921, 68.760772)"><g><path d="M 31.734375 -41.328125 L 39.234375 -41.328125 L 39.296875 -19.328125 C 39.335938 -15.210938 38.664062 -11.671875 37.28125 -8.703125 C 35.90625 -5.734375 33.90625 -3.453125 31.28125 -1.859375 C 28.664062 -0.265625 25.515625 0.53125 21.828125 0.53125 C 15.929688 0.53125 11.5 -0.953125 8.53125 -3.921875 C 5.5625 -6.898438 4.078125 -11.4375 4.078125 -17.53125 L 4.078125 -41.328125 L 11.640625 -41.328125 L 11.640625 -18.109375 C 11.640625 -13.953125 12.484375 -10.941406 14.171875 -9.078125 C 15.859375 -7.210938 18.375 -6.28125 21.71875 -6.28125 C 25.09375 -6.28125 27.625 -7.367188 29.3125 -9.546875 C 31 -11.722656 31.820312 -15.097656 31.78125 -19.671875 Z M 31.734375 -41.328125 "/></g></g></g><g fill="#000000" fill-opacity="1"><g transform="translate(831.959635, 68.760772)"><g><path d="M 36.90625 -7.21875 L 38.65625 -1.34375 C 37.882812 -0.757812 36.929688 -0.300781 35.796875 0.03125 C 34.671875 0.363281 33.488281 0.53125 32.25 0.53125 C 27.90625 0.53125 24.488281 -1.390625 22 -5.234375 L 16.015625 -14.4375 C 15.390625 -15.40625 14.742188 -16.082031 14.078125 -16.46875 C 13.421875 -16.863281 12.707031 -17.0625 11.9375 -17.0625 L 11.640625 -17.0625 L 11.640625 0 L 4.25 0 L 4.25 -41.328125 L 17.109375 -41.328125 C 22.347656 -41.328125 26.316406 -40.238281 29.015625 -38.0625 C 31.710938 -35.894531 33.0625 -32.910156 33.0625 -29.109375 C 33.0625 -26.816406 32.554688 -24.84375 31.546875 -23.1875 C 30.546875 -21.539062 29.171875 -20.234375 27.421875 -19.265625 C 25.671875 -18.296875 23.691406 -17.675781 21.484375 -17.40625 C 22.648438 -16.78125 23.71875 -15.734375 24.6875 -14.265625 L 27.9375 -9.4375 C 28.789062 -8.1875 29.597656 -7.328125 30.359375 -6.859375 C 31.117188 -6.398438 32.082031 -6.171875 33.25 -6.171875 C 34.601562 -6.171875 35.820312 -6.519531 36.90625 -7.21875 Z M 16.59375 -35.171875 L 11.640625 -35.171875 L 11.640625 -23 L 16.25 -23 C 19.425781 -23 21.769531 -23.484375 23.28125 -24.453125 C 24.800781 -25.421875 25.5625 -26.972656 25.5625 -29.109375 C 25.5625 -33.148438 22.570312 -35.171875 16.59375 -35.171875 Z M 16.59375 -35.171875 "/></g></g></g><g fill="#000000" fill-opacity="1"><g transform="translate(912.776032, 68.760772)"><g><path d="M -0.578125 0 L 17.0625 -41.328125 L 23.46875 -41.328125 L 40.40625 0 L 32.71875 0 L 29 -9.4375 L 10.9375 -9.4375 L 7.109375 0 Z M 13.5625 -15.78125 L 26.546875 -15.78125 L 20.140625 -32.015625 Z M 13.5625 -15.78125 "/></g></g></g></g></g></svg>