<svg xmlns="http://www.w3.org/2000/svg" height="1080" width="1080" viewBox="0 0 1080 1080" version="1.1">
<path fill="#FEFDFD" d="m0 0h1080v1080h-1080z" transform="translate(0)"></path>
<path fill="#332115" d="m0 0h46l34 3 34 6 15 4 24 7 22 8 25 11 22 11 22 13 16 11 15 11 16 13 11 10 8 7 14 14 7 8 12 14 13 17 13 19 12 20 10 18 11 24 10 26 6 19 6 23 3 13 5 31 2 27v40l-2 27-6 37-9 36-11 32-12 28-10 19-13 22-13 19-16 21-9 10-7 8-27 27-11 9-4 2v2l-19 14-10 7-14 9-15 9-27 14-16 7-26 10-23 7-20 5-20 4-29 4-13 1h-54l-36-4-16-3-24-5-33-10-28-11-13-6-16-8-15-8-21-13-17-12-14-11-14-12-15-14-15-15-7-8-11-13-12-16-12-18-10-16-12-22-10-21-6-15-5-13-5-15-6-22-4-18-4-22-3-33v-49l3-33 6-33 7-26 9-27 6-16 7-15 8-17 14-24 14-21 14-19 12-14 9-10 14-15 8-7 7-7 14-11 11-9 17-12 22-14 20-11 16-7 8-4 25-10 19-6 17-5 23-5 22-4z" transform="translate(516,132)"></path>
<path fill="#332115" d="m0 0h32l31 3 14 3 18 4 30 10 24 11 21 12 19 13 16 13 12 11 16 16 9 11 10 13 10 15 9 16 9 17 8 20 5 15 5 19 4 19 2 18 1 17v21l-2 27-3 17-4 19-6 19-7 19-12 25-11 19-12 17-13 16-9 10-18 18-5 4h-2v2l-8 6-17 12-20 12-17 9-14 6-14 5-15 5-20 5-23 4-11 1h-50l-11-1-17-3-15-3-18-5-17-6-13-5-16-8-20-11-12-8-19-14-12-11-8-7-9-9-7-8-13-16-16-24-11-20-10-23-6-17-6-21-4-20-3-31v-31l3-31 6-28 7-22 9-23 8-16 8-14 14-21 13-16 12-14 10-10 11-9 13-11 24-16 16-9 25-12 33-11 22-5 24-3z" transform="translate(523,254)"></path>
<path fill="#FEFDFD" d="m0 0h1v11l-9 1-2 2v281l3 3 8 1v11h-57l-1-1v-9l1-1 10-2 1-1 1-135h-143l1 85 4 2 8 1v9l-1 1h-57l-1-1v-9l10-2 2-2v-180l-3-3-8-1-1-1v-9h59v9l-1 1-10 2-1 1-1 84h143l-1-134-2-2-9-1-1-1v-9z" transform="translate(714,386)"></path>
<path fill="#FEFDFD" d="m0 0h19l27 4 20 7 17 9 13 9 4 34 2 22v10l-2-3-10-24-8-16-9-12-8-8-14-9-12-5-10-3-6-1h-27l-11 2-17 6-11 6-11 8-10 9-11 13-10 16-7 16-5 14-4 16-3 26v30l4 27 6 20 8 18 9 16 8 10 9 10 2 1v2l4 2 13 9 12 6 11 4 17 3 6 1h9l22-3 17-5 17-8 17-12 11-11 8-11h13l-4 8-9 12-11 12-12 10-15 9-15 6-14 4-17 2h-24l-17-2-21-6-16-7-16-9-16-12-13-12-10-12-8-13-9-16-6-15-4-13-4-23-1-13v-11l1-16 5-25 6-17 8-17 8-13 11-14 17-17 14-10 13-8 17-8 16-5z" transform="translate(490,382)"></path>
<path fill="#FEFDFD" d="m0 0h24l22 2 26 4 24 6 26 9 24 11 23 13 16 11 13 10 14 12 20 20 9 11 10 13 10 15 10 17 8 16 7 16 7 20 5 18 5 25 2 18 1 17v18l-2 29-3 20-5 21-10 30-11 24-9 17-16 24-10 13-9 10-7 8-14 14-11 9-15 12-17 11-17 10-23 11-23 9-26 7-28 5-29 2h-15l-31-2-23-4-16-4-18-5-28-11-22-11-18-11-14-10-13-10-12-11-11-10-7-8-8-9-13-17-13-20-13-24-9-21-9-27-5-20-3-20-2-16v-45l5-36 6-24 10-29 10-22 12-21 10-15 9-12 11-13 11-12 10-10 8-7 16-13 11-7 10-7 21-12 15-7 20-8 22-7 22-5 27-4zm-5 7-30 3-20 4-15 4-27 9-33 16-19 12-14 10-13 11-11 9-13 13-9 11-13 16-11 17-9 15-8 17-4 9-8 20-6 21-5 24-3 31v31l3 31 4 20 7 25 10 25 8 16 11 20 11 16 11 14 18 20 8 8 8 7 15 12 16 11 15 9 23 12 22 9 19 6 21 5 19 3 3 1 11 1h50l15-2 24-4 22-6 17-6 13-5 16-8 21-12 16-11 9-7 6-4v-2l4-2 10-9 18-18 11-14 10-13 12-19 14-27 8-20 5-15 5-19 4-19 2-18 1-17v-21l-2-27-3-17-4-19-7-22-5-13-5-11-8-16-9-16-13-19-13-16-11-12-16-16-11-9-13-10-20-13-20-11-23-10-21-7-19-5-12-3-25-3-13-1z" transform="translate(528,247)"></path>
<path fill="#FEFDFD" d="m0 0 2 4 4 9 7 7 8 4 5 1v2l-10 3-8 6-5 9-2 6-2-3-7-14-4-2-9-4-4-1v-2l10-3 9-8 4-9z" transform="translate(189,516)"></path>
<path fill="#FEFDFD" d="m0 0h1l3 10 8 9 8 4 5 2-3 2-9 4-5 4-5 8-2 8-2-1-4-11-5-6-9-5-6-2v-2l9-3 6-4 5-6z" transform="translate(893,516)"></path>
<path fill="#FEFDFD" d="m0 0h8l7 3 2 3v6l-4 4 5 4 1 2v7l-5 5-3 1h-14l1-21v-13z" transform="translate(537,174)"></path>
<path fill="#332115" d="m0 0h10l7 6 4 8v8l-4 6-6 3-8-11-9-14 1-3z" transform="translate(331,237)"></path>
<path fill="#FEFDFD" d="m0 0h6l-2 2-6 1-1 8 2 5 10 2 2-18h3v35l-14-1-5-4v-7l3-4-5-4-1-7 3-5z" transform="translate(531,873)"></path>
<path fill="#FEFDFD" d="m0 0 9 6 13 10 5 3-1 4h-3l-5-5-4-3h-3l-7 10-1 2 4 2 8 5-1 4-5-2-15-12-8-6 3-3 11 8 4-2 6-9-11-8z" transform="translate(250,309)"></path>
<path fill="#FEFDFD" d="m0 0h2l6 8 2 7-2 6-5 3-9-1-6 14h-2l-1-4 7-14 9 1 5-4v-7l-3-4-5 2-7 6-1 4-3-2-9 8-4-2 5-5 17-13z" transform="translate(829,316)"></path>
<path fill="#FEFDFD" d="m0 0h3l-1 6-6 12-5-2-6 1-3 3v6l3 4v2l11-8 3-4 4-1 6-5 1-2 4 2v2l-12 9-13 10-4-1-6-8-1-7 3-5 4-2 9 1z" transform="translate(263,731)"></path>
<path fill="#FEFDFD" d="m0 0h10l5 3 6 7 1 2v10l-4 6-1-2 1-2v-8l-4-8-6-5h-10l-5 3 2 5 14 21 6-2-5 5-4 1-10-16-6-9v-2l-3-1 5-4z" transform="translate(333,235)"></path>
<path fill="#FEFDFD" d="m0 0h4l6 27v4l2 1-8 3h-11l-6-4-4-5-2-10 3-8 5-5 4-2 3 1-8 5-2 4v10l4 8 3 3 6 1 8-1-7-27z" transform="translate(634,861)"></path>
<path fill="#332115" d="m0 0h11l3 4v9l-5 4h-9z" transform="translate(538,191)"></path>
<path fill="#FEFDFD" d="m0 0h9l5 3 2 2v4h-2l-4-6-2-1h-6l-4 3v7l11 10 2 3-1 7-4 3h-7l-6-3-2-4 2-1 4 5 5 1 4-2v-6l-12-10-1-2v-8l4-4z" transform="translate(466,865)"></path>
<path fill="#332115" d="m0 0 7 1 4 4 1 3-12 9h-2l-4-6v-6z" transform="translate(250,746)"></path>
<path fill="#FEFDFD" d="m0 0 8 1 8 7-1 5-2-3-3-5-5-2-5 1-2 2 1 9 7 10v5l-5 5h-4v-2l4-2v-6l-8-11-1-6 4-6z" transform="translate(381,834)"></path>
<path fill="#FEFDFD" d="m0 0 6 1 23 10 5 2-2 4-23-10-4-1 6 11v2l5-3-2 6 1 5-3-3-10-19z" transform="translate(267,289)"></path>
<path fill="#FEFDFD" d="m0 0h5l-6 4v8l5 2 7 7 1 2v6l-4 5-2 1h-10l-1-2 9-1 3-3-1-7-12-11v-6l3-4z" transform="translate(609,182)"></path>
<path fill="#FEFDFD" d="m0 0 4 4 13 24v3l-9-3-25-10 2-4 5 2 19 8h3l-6-11-3-1 1-3-4-7z" transform="translate(795,762)"></path>
<path fill="#FEFDFD" d="m0 0h9l4 29v5h-8l4-1-2-14-11 1 1-3h10l-2-11v-5l-13 3-3 1 1-3z" transform="translate(592,869)"></path>
<path fill="#FEFDFD" d="m0 0 3 1 1 15 11-1v2l-10 1 2 9v6l5-1 4 1-2 1-11 1-4-27v-7z" transform="translate(476,179)"></path>
<path fill="#FEFDFD" d="m0 0 8 1 2 1-1 2-2-1h-6l-1 1v6l7 10 1 2v7l-5 5h-9v-1l7-2 2-3v-6l-7-10-1-7z" transform="translate(698,213)"></path>
<path fill="#FEFDFD" d="m0 0h2l1 4-9 7-10 10-3 2 1 4 5 5v2h4v2l-3 1-7-7-5-6 2-4 16-15z" transform="translate(806,289)"></path>
<path fill="#FEFDFD" d="m0 0 5 1 12 8v2l-3 3-7 11-8 13-6-2-9-6v-2l5 2 8 5 2-5 7-11 6-9v-2l-12-7z" transform="translate(352,816)"></path>
<path fill="#FEFDFD" d="m0 0h5l-3 12-5 18-1 2 7 2 2-1-1 3-11-2-10-4 1-3 1 3 8 1 1-8 5-18z" transform="translate(438,857)"></path>
<path fill="#FEFDFD" d="m0 0 6 5 7 9-3 3-30-9-1 2-5-7 7 1 23 7 5 2-8-10z" transform="translate(778,799)"></path>
<path fill="#FEFDFD" d="m0 0 7 6 4 4v2l-8 7-13 12-5 3-1-3 10-10-2-4-3-3 1-2 6 6 4-2 6-6-2-4-4-4z" transform="translate(287,759)"></path>
<path fill="#FEFDFD" d="m0 0 10 1 21 6-1-4 5 4 4 6-11-2-24-7-1 2-3-3z" transform="translate(289,267)"></path>
<path fill="#332115" d="m0 0 7 1v12l-1 1-9-1-2-3 1-8z" transform="translate(534,892)"></path>
<path fill="#FEFDFD" d="m0 0h3l10 16 8 11-3 3-7-10-9-13 2 10v7h-1l-3-14-1-9z" transform="translate(378,209)"></path>
<path fill="#FEFDFD" d="m0 0 7 6 14 14-2-9 2 1 4 12-1 3-4-2-20-20z" transform="translate(696,837)"></path>
<path fill="#FEFDFD" d="m0 0 2 1 5 9 7 10 6 9-8 6-3-1 5-3-1-4-15-23z" transform="translate(741,809)"></path>
<path fill="#FEFDFD" d="m0 0 10 1v1h-7v8l-1 7 10 1v2l-10-1-2 15h-4l3-28z" transform="translate(572,176)"></path>
<path fill="#FEFDFD" d="m0 0 3 1-1 4-14 19-3 5 4 4-5-2-4-5 7-8z" transform="translate(756,246)"></path>
<path fill="#332115" d="m0 0h8l3 3 1 5-3 5h-9z" transform="translate(539,176)"></path>
<path fill="#FEFDFD" d="m0 0 12 2v4h-2l-3-3-5-1-1 8-7 23-4-1 3-11 6-20z" transform="translate(647,192)"></path>
<path fill="#FEFDFD" d="m0 0 4 2 8 6 3 1 2-4 5-5-2 5-4 5 5 5 6 4-1 4-11-7-12-10-4-2z" transform="translate(804,750)"></path>
<path fill="#FEFDFD" d="m0 0 4 2 10 11 9 11 2 4-3 1-9-10-9-11-2-1v6l-2-1z" transform="translate(406,198)"></path>
<path fill="#FEFDFD" d="m0 0h2l4 8 10 15v-9l2 2 1 5v8l-3 1-7-11-11-16v-2z" transform="translate(683,843)"></path>
<path fill="#FEFDFD" d="m0 0h9l6 3 5 6 1 3v11l-3 5-3 3-2-1 3-5 1-4-2-12-4-5-5-2h-9z" transform="translate(443,186)"></path>
<path fill="#FEFDFD" d="m0 0 5 3 20 15 2 1-1 4-5-2-8-7-3 1-1-4-11-8z" transform="translate(816,735)"></path>
<path fill="#FEFDFD" d="m0 0h3l-1 5-9 9-7 8-3 4-4-1 2-4 15-16z" transform="translate(782,268)"></path>
<path fill="#FEFDFD" d="m0 0 4 1 9 9 8 7 1 1 2-4 1 12h-2v-2h-2l-7-8-10-10-2 2-3-7z" transform="translate(359,219)"></path>
<path fill="#FEFDFD" d="m0 0 4 1-1 2 8 30-5 1-7-31z" transform="translate(436,188)"></path>
<path fill="#FEFDFD" d="m0 0 7 1-4 33-2 1-2-2 2-15-2-1h2l1-15z" transform="translate(505,871)"></path>
<path fill="#FEFDFD" d="m0 0 3 1-2 5-10 10-7 8-3 4-3-4 10-10 7-8z" transform="translate(315,788)"></path>
<path fill="#FEFDFD" d="m0 0h5l6 8 2 1 3 5 7 8 1-8h1v14h-2l-9-11-9-10-5-5z" transform="translate(648,856)"></path>
<path fill="#FEFDFD" d="m0 0v3l-1 9 4 8 7 6 9 1-3 2h-8l-7-4-5-8-1-9 4-7z" transform="translate(731,817)"></path>
<path fill="#FEFDFD" d="m0 0 2 1-1 4-14 19-3 5-5-2 6-7 8-11z" transform="translate(340,807)"></path>
<path fill="#FEFDFD" d="m0 0 3 3-7 11 1 4h-4l-7 12-3-1 2-6 13-20z" transform="translate(729,228)"></path>
<path fill="#FEFDFD" d="m0 0 7 6 9 11-1 2-10-11-5-6z" transform="translate(758,809)"></path>
</svg>
